<svg width="24" height="18" viewBox="0 0 24 18" fill="none" xmlns="http://www.w3.org/2000/svg">
<path d="M24 4.28461V6.85537C24 7.08264 23.9097 7.3006 23.749 7.46131C23.5883 7.62201 23.3703 7.71229 23.1431 7.71229V17.1384C23.1431 17.3657 23.0528 17.5836 22.8921 17.7443C22.7314 17.9051 22.5134 17.9953 22.2862 17.9953H19.7154C19.4881 17.9953 19.2702 17.9051 19.1095 17.7443C18.9488 17.5836 18.8585 17.3657 18.8585 17.1384V7.71229H5.14776V17.1384C5.14776 17.3657 5.05748 17.5836 4.89677 17.7443C4.73607 17.9051 4.51811 17.9953 4.29084 17.9953H1.72008C1.49281 17.9953 1.27485 17.9051 1.11415 17.7443C0.953444 17.5836 0.863162 17.3657 0.863162 17.1384V7.71229C0.635892 7.71229 0.417931 7.62201 0.257228 7.46131C0.0965241 7.3006 0.00624172 7.08264 0.00624172 6.85537V4.28461C0.00242895 4.22755 0.00242895 4.17029 0.00624172 4.11323C-0.00208057 4.07367 -0.00208057 4.03282 0.00624172 3.99326C-0.00185198 3.96527 -0.00185198 3.93556 0.00624172 3.90757C0.0260908 3.84992 0.0582564 3.79729 0.100503 3.75332C0.139565 3.70143 0.185718 3.65528 0.23761 3.61622L0.297594 3.57337L1.64296 2.57077L4.61647 0.188537C4.76724 0.0675732 4.95447 0.00113552 5.14776 1.43228e-05H19.7154C19.8282 -0.000637702 19.94 0.0209781 20.0444 0.0636224C20.1488 0.106267 20.2437 0.169101 20.3238 0.248521L22.6461 2.57077L23.7515 3.6762C23.8286 3.75517 23.8897 3.84828 23.9314 3.95041C23.9391 3.99004 23.9391 4.03076 23.9314 4.07038C23.9678 4.13675 23.9911 4.20948 24 4.28461V4.28461ZM6.00468 8.56921V12.4682C6.00468 12.6955 6.09496 12.9134 6.25567 13.0741C6.41637 13.2348 6.63433 13.3251 6.8616 13.3251H9.43236C9.65963 13.3251 9.87759 13.2348 10.0383 13.0741C10.199 12.9134 10.2893 12.6955 10.2893 12.4682V8.56921H6.00468ZM13.717 8.56921V12.4682C13.717 12.6955 13.8072 12.9134 13.9679 13.0741C14.1287 13.2348 14.3466 13.3251 14.5739 13.3251H17.1446C17.3719 13.3251 17.5899 13.2348 17.7506 13.0741C17.9113 12.9134 18.0016 12.6955 18.0016 12.4682V8.56921H13.717Z" fill="black"/>
</svg>
