<svg width="27" height="27" viewBox="0 0 27 27" fill="none" xmlns="http://www.w3.org/2000/svg">
<path d="M16.4722 10.5241C16.1524 10.2023 15.7977 9.91715 15.4149 9.67372C14.4009 9.0244 13.2221 8.67936 12.018 8.67936C10.3467 8.67625 8.74338 9.34028 7.5637 10.5241L1.84065 16.2516C0.662973 17.4316 0.00105582 19.0302 1.30413e-06 20.6973C-0.00221317 24.1762 2.81607 26.9981 6.29491 27.0003C7.96357 27.0061 9.56543 26.3452 10.7447 25.1646L15.4689 20.4404C15.5547 20.3553 15.6027 20.2392 15.602 20.1183C15.6006 19.8698 15.3979 19.6696 15.1494 19.671H14.9695C13.9825 19.6745 13.0042 19.485 12.09 19.1131C11.9215 19.0438 11.7279 19.0829 11.5996 19.2121L8.20263 22.6135C7.1478 23.6684 5.43759 23.6684 4.38276 22.6135C3.32794 21.5587 3.32794 19.8485 4.38276 18.7937L10.1283 13.0526C11.1823 12 12.8897 12 13.9437 13.0526C14.654 13.7211 15.762 13.7211 16.4723 13.0526C16.7779 12.7468 16.9631 12.3411 16.9942 11.9098C17.027 11.3944 16.837 10.8897 16.4722 10.5241Z" fill="black"/>
<path d="M25.1506 1.84502C22.6906 -0.615005 18.7021 -0.615005 16.2421 1.84502L11.5224 6.56022C11.3928 6.69045 11.3554 6.88632 11.4279 7.05515C11.4996 7.22445 11.667 7.33312 11.8508 7.32959H12.0173C13.0031 7.3278 13.9798 7.51882 14.8923 7.89201C15.0608 7.96135 15.2544 7.92222 15.3827 7.79305L18.7706 4.40959C19.8255 3.35476 21.5357 3.35476 22.5905 4.40959C23.6453 5.46442 23.6453 7.17463 22.5905 8.22946L18.3702 12.4452L18.3342 12.4857L16.8584 13.9525C15.8044 15.0052 14.097 15.0052 13.043 13.9525C12.3327 13.284 11.2248 13.284 10.5145 13.9525C10.2069 14.2607 10.0215 14.6699 9.99255 15.1043C9.95965 15.6197 10.1497 16.1244 10.5145 16.4901C11.0353 17.0131 11.6446 17.4396 12.3142 17.7499C12.4087 17.7948 12.5031 17.8308 12.5976 17.8713C12.6921 17.9118 12.7911 17.9433 12.8856 17.9793C12.98 18.0153 13.079 18.0468 13.1735 18.0738L13.439 18.1458C13.6189 18.1908 13.7989 18.2268 13.9834 18.2582C14.2055 18.2912 14.4293 18.3123 14.6538 18.3212H14.9687H14.9957L15.2656 18.2898C15.3646 18.2853 15.4681 18.2628 15.5851 18.2628H15.7381L16.0485 18.2178L16.1925 18.1908L16.4534 18.1368H16.503C17.6081 17.8592 18.6173 17.287 19.423 16.4811L25.1505 10.7535C27.6107 8.29352 27.6107 4.30504 25.1506 1.84502Z" fill="black"/>
</svg>
