<svg width="31" height="31" viewBox="0 0 31 31" fill="none" xmlns="http://www.w3.org/2000/svg">
<circle cx="15.5" cy="15.5" r="15.5" fill="#853B3B"/>
<path d="M16.9368 4.03282C16.9368 4.03282 15.4678 1.84321 14.9689 1.87093C14.47 1.89864 12.8902 4.19911 12.8902 4.19911C12.8902 4.19911 9.34215 4.83878 7.56862 6.16699C4.82536 8.22145 3.57745 13.983 3.57745 13.983C3.57745 13.983 3.34496 16.1315 3.57745 17.4753C3.86388 19.1311 5.185 21.4665 5.185 21.4665C5.185 21.4665 6.6817 23.7115 8.5387 25.0142C10.3957 26.3169 13.3059 26.7049 13.3059 26.7049C13.3059 26.7049 14.9967 29.2549 15.4401 29.144C15.8836 29.0331 17.6297 26.7049 17.6297 26.7049C17.6297 26.7049 20.8441 26.0047 22.5078 24.8202C24.3393 23.5163 26.111 20.3301 26.111 20.3301C26.111 20.3301 27.5877 19.0829 27.3305 15.3966C27.0733 11.7103 24.8637 8.46746 24.8637 8.46746C24.8637 8.46746 22.6746 6.09873 20.8726 5.19691C19.4392 4.4796 16.9368 4.03282 16.9368 4.03282Z" fill="#08020E" stroke="black"/>
<path d="M16.5488 8.10713H16.0222C16.0222 8.10713 14.3592 7.82997 13.8049 8.10713C13.2506 8.3843 13.6318 9.23862 13.1951 9.10493C12.8934 9.01254 12.7794 8.41201 12.7794 8.41201C12.7794 8.41201 11.4533 8.41101 11.2272 9.02178C11.0747 9.434 11.5598 9.79784 11.4213 10.1304C11.2827 10.463 10.2572 9.63154 10.2572 9.63154C10.2572 9.63154 9.53502 9.97898 9.45339 10.4076C9.39738 10.7017 9.70284 10.8511 9.61969 11.1559C9.53654 11.4608 8.98221 11.1559 8.98221 11.1559L8.34473 12.2923C8.34473 12.2923 8.76048 12.8189 8.87135 13.1238C8.98221 13.4287 7.87355 13.4287 7.87355 13.4287L7.43009 14.7037C7.43009 14.7037 7.80096 15.103 7.67954 15.3411C7.59771 15.5016 7.2915 15.5906 7.2915 15.5906C7.2915 15.5906 7.54424 16.2609 7.67954 16.6993C7.87698 17.3389 8.09528 18.3622 8.09528 18.3622C8.09528 18.3622 8.6219 18.2514 8.87135 18.3622C9.12079 18.4731 8.51103 19.0829 8.51103 19.0829C8.51103 19.0829 8.83102 20.2666 9.45339 20.4964C10.0895 20.7313 11.0055 19.8035 11.1164 19.9975C11.2272 20.1915 10.368 20.9676 10.5066 21.3279C10.6452 21.6882 12.5299 22.3534 12.5299 22.3534C12.5299 22.3534 13.2783 21.3279 13.6663 21.1616C14.0543 20.9953 13.6663 22.6029 13.6663 22.6029L16.3548 22.686C16.3548 22.686 16.5211 22.2426 16.826 22.1317C17.1309 22.0208 17.4635 22.686 17.4635 22.686L18.9879 22.1317C18.9879 22.1317 17.9624 20.1638 18.2395 20.1915C18.5167 20.2193 19.9857 21.6051 19.9857 21.6051L20.928 20.9953C20.928 20.9953 21.5399 20.6707 21.8427 20.3578C22.2405 19.9469 22.5633 19.0829 22.5633 19.0829C22.5633 19.0829 21.4546 18.0851 21.2052 17.6693C20.9557 17.2536 23.0622 17.9742 23.0622 17.9742C23.0622 17.9742 23.1862 17.1999 23.2008 16.6993C23.2207 16.0155 23.0622 14.9531 23.0622 14.9531C23.0622 14.9531 21.2052 14.5651 21.8427 14.2325C22.4802 13.8999 22.8405 13.595 22.8405 13.595L22.203 11.7103C22.203 11.7103 21.3161 11.9597 21.2052 11.7103C21.0943 11.4608 21.6764 10.8511 21.6764 10.8511L20.0965 9.43752C20.0965 9.43752 19.4653 9.90571 19.4036 9.63154C19.3675 9.47069 19.5699 9.24351 19.5699 9.24351L17.6298 8.41201C17.6298 8.41201 16.5488 9.63154 16.5488 9.24351V8.10713Z" fill="#853B3B"/>
<path d="M16.5765 15.5906C16.6026 13.4064 15.4956 10.1027 15.4956 10.1027C15.4956 10.1027 14.3247 13.405 14.3869 15.5906C14.4436 17.5824 15.5787 20.5518 15.5787 20.5518C15.5787 20.5518 16.5529 17.5667 16.5765 15.5906Z" fill="#08020E" stroke="black"/>
</svg>
