<svg width="111" height="133" viewBox="0 0 111 133" fill="none" xmlns="http://www.w3.org/2000/svg">
<g filter="url(#filter0_d)">
<path d="M27.6814 17.3077H10.277L13.1302 23.9423V51.9231L4 57.6923L13.1302 62.8846V94.3269L11.4183 104.423L22.831 99.8077L55.6427 105L90.1662 99.8077L101.864 105L99.2964 94.3269V62.8846L107 57.6923L99.2964 51.9231V23.9423L103.291 17.3077H85.0305L82.4626 12.9808L86.4571 2.88462L79.0388 4.03846L73.903 0H37.6676L32.2465 4.03846L25.1136 2.88462L29.6787 12.9808L27.6814 17.3077Z" fill="#853B3B"/>
</g>
<g filter="url(#filter1_d)">
<path d="M56.2563 80.0053C56.2563 80.0053 33.9006 80.0053 32.1019 96.5958C30.3032 113.186 52.9158 116.815 52.9158 116.815L56.2563 122L59.8538 116.815C59.8538 116.815 82.4663 113.964 80.9246 96.5958C79.3828 79.2276 56.2563 80.0053 56.2563 80.0053Z" fill="#FFD8D9"/>
<path d="M56.2563 80.0053C56.2563 80.0053 33.9006 80.0053 32.1019 96.5958C30.3032 113.186 52.9158 116.815 52.9158 116.815L56.2563 122L59.8538 116.815C59.8538 116.815 82.4663 113.964 80.9246 96.5958C79.3828 79.2276 56.2563 80.0053 56.2563 80.0053Z" stroke="black" stroke-width="3"/>
</g>
<defs>
<filter id="filter0_d" x="0" y="0" width="111" height="113" filterUnits="userSpaceOnUse" color-interpolation-filters="sRGB">
<feFlood flood-opacity="0" result="BackgroundImageFix"/>
<feColorMatrix in="SourceAlpha" type="matrix" values="0 0 0 0 0 0 0 0 0 0 0 0 0 0 0 0 0 0 127 0" result="hardAlpha"/>
<feOffset dy="4"/>
<feGaussianBlur stdDeviation="2"/>
<feComposite in2="hardAlpha" operator="out"/>
<feColorMatrix type="matrix" values="0 0 0 0 0 0 0 0 0 0 0 0 0 0 0 0 0 0 0.25 0"/>
<feBlend mode="normal" in2="BackgroundImageFix" result="effect1_dropShadow"/>
<feBlend mode="normal" in="SourceGraphic" in2="effect1_dropShadow" result="shape"/>
</filter>
<filter id="filter1_d" x="26.4991" y="78.5" width="60.0015" height="54.1978" filterUnits="userSpaceOnUse" color-interpolation-filters="sRGB">
<feFlood flood-opacity="0" result="BackgroundImageFix"/>
<feColorMatrix in="SourceAlpha" type="matrix" values="0 0 0 0 0 0 0 0 0 0 0 0 0 0 0 0 0 0 127 0" result="hardAlpha"/>
<feOffset dy="4"/>
<feGaussianBlur stdDeviation="2"/>
<feComposite in2="hardAlpha" operator="out"/>
<feColorMatrix type="matrix" values="0 0 0 0 0 0 0 0 0 0 0 0 0 0 0 0 0 0 0.25 0"/>
<feBlend mode="normal" in2="BackgroundImageFix" result="effect1_dropShadow"/>
<feBlend mode="normal" in="SourceGraphic" in2="effect1_dropShadow" result="shape"/>
</filter>
</defs>
</svg>
