<svg width="31" height="31" viewBox="0 0 31 31" fill="none" xmlns="http://www.w3.org/2000/svg">
<circle cx="15.5" cy="15.5" r="15.5" fill="#3E9C5E"/>
<path d="M13.2429 19.3257C13.0526 18.8545 12.8387 18.9208 12.8387 18.9208C12.8387 18.9208 12.0188 19.0862 11.7879 19.8116C11.557 20.5371 12.0498 21.6588 11.9495 22.3222C11.8492 22.9856 11.4677 23.5258 10.8178 23.9419C10.2954 24.2764 9.28191 24.3468 9.28191 24.3468C9.28191 24.3468 8.26977 23.8675 8.06935 23.375C7.86892 22.8825 8.06935 22.5651 8.06935 22.5651C8.06935 22.5651 8.38435 21.9456 8.71605 21.9982C9.12687 22.0635 8.30593 22.1602 8.87772 23.051C9.44951 23.9419 10.3328 23.294 10.3328 23.294C10.3328 23.294 10.6562 23.1131 10.8178 22.4032C10.9794 21.6932 10.1525 20.4116 10.4136 19.1637C10.576 18.3876 11.222 17.301 11.222 17.301C11.222 17.301 10.7032 16.4604 9.20107 17.1391C7.69896 17.8178 7.90767 20.1356 7.90767 20.1356C7.90767 20.1356 7.52901 19.7213 6.77595 20.2165C6.02289 20.7118 5.96758 24.6708 5.96758 24.6708C4.50379 22.5651 4.35083 17.1391 4.35083 17.1391C4.35083 17.1391 4.43394 14.8731 4.83585 13.4947C5.3108 11.8659 6.77595 9.6074 6.77595 9.6074C6.77595 9.6074 7.93652 7.24912 8.3927 5.63909C8.63114 4.79754 8.87772 3.45248 8.87772 3.45248C8.87772 3.45248 9.1237 3.34173 9.28191 3.37149C9.48071 3.40889 9.68609 3.69544 9.68609 3.69544C9.68609 3.69544 9.68609 4.26234 9.28191 5.31515C8.87772 6.36797 8.87772 7.9067 8.87772 7.9067C8.87772 7.9067 8.87731 9.15489 9.0394 9.93134C9.2398 10.8914 9.92861 12.2799 9.92861 12.2799C9.92861 12.2799 10.5972 13.0686 10.8987 12.9278C11.2001 12.7871 10.5753 11.3081 10.5753 11.3081C10.5753 11.3081 10.4615 10.4568 10.5753 9.93134C10.719 9.26793 11.3837 8.39261 11.3837 8.39261C11.3837 8.39261 11.4684 6.97878 12.0304 6.36797C12.5277 5.82744 13.728 5.55811 13.728 5.55811C13.728 5.55811 14.7012 4.74814 15.5872 4.82924C16.4733 4.91034 17.2848 5.55811 17.2848 5.55811C17.2848 5.55811 18.7399 5.83141 19.2249 6.69191C19.7099 7.55241 19.7099 8.63557 19.7099 8.63557C19.7099 8.63557 20.1272 9.14198 20.2758 9.52641C20.4596 10.0021 20.4375 10.8222 20.4375 10.8222L20.0718 12.6001L20.2758 12.9278C21.4824 12.6341 22.0542 9.36444 22.0542 9.36444C22.0542 9.36444 22.2119 7.36779 21.9734 6.12501C21.798 5.21167 21.2458 3.85741 21.2458 3.85741C21.2458 3.85741 21.4089 3.42411 21.65 3.37149C21.8073 3.33717 22.0542 3.45248 22.0542 3.45248C22.0542 3.45248 22.9454 7.11144 23.9135 8.87853C24.8815 10.6456 26.0961 13.2518 26.0961 13.2518C26.0961 13.2518 26.5811 14.0447 26.5811 17.0581C26.5811 20.0714 24.9643 24.6708 24.9643 24.6708C24.9643 24.6708 24.9095 20.9678 24.3176 20.3785C23.7258 19.7893 22.9434 20.1356 22.9434 20.1356C22.9434 20.1356 23.3009 17.8008 21.8925 17.2201C20.4841 16.6394 19.7099 17.2201 19.7099 17.2201C19.7099 17.2201 20.5184 18.6936 20.5991 19.7306C20.6738 20.6896 20.0333 21.4208 20.1949 22.1602C20.3566 22.8996 20.6457 23.3933 21.3267 23.537C21.9234 23.6628 22.7724 22.3268 22.7817 22.9701C22.7911 23.6133 22.1038 24.2575 21.3267 24.3468C20.8009 24.4073 20.4642 24.2492 20.0333 23.9419C19.3065 23.4236 19.2919 22.7165 19.1441 21.8363C19.013 21.0559 19.3919 20.2311 19.2249 19.8116C19.0578 19.3921 18.8268 18.9413 18.3357 18.9208C17.6228 18.891 17.9315 20.7025 17.9315 20.7025C17.9315 20.7025 18.0808 22.0483 17.9315 22.8891C17.7968 23.6472 17.2848 24.7517 17.2848 24.7517C17.2848 24.7517 16.8708 26.651 17.6082 26.6144C17.933 26.5983 18.1213 26.456 18.3382 26.2136C18.6155 25.9038 18.6101 25.4998 18.6441 25.1939C18.6781 24.8879 18.9501 25.0579 19.1441 25.3996C19.3381 25.7414 19.0656 26.1889 18.8207 26.6144C18.5756 27.0405 18.3923 27.334 17.9315 27.5053C17.5468 27.6482 17.2533 27.6771 16.8806 27.5053C16.3784 27.2738 16.3303 27.1152 16.1531 26.2905C15.9758 25.4658 16.7189 23.132 16.7189 23.132C16.7189 23.132 16.8766 22.6785 16.7189 21.0264C16.5613 19.3743 15.5872 18.9208 15.5872 18.9208C15.5872 18.9208 13.9534 19.8116 14.213 21.9982C14.4726 24.1848 14.5363 24.1039 14.5363 24.1039C14.5363 24.1039 15.0921 25.6187 14.9405 26.4524C14.789 27.2861 14.077 27.4861 13.3238 27.5053C12.7844 27.519 12.4743 27.326 12.0304 27.0193C11.6995 26.7908 11.3028 26.2905 11.3028 26.2905C11.3028 26.2905 11.1412 25.0855 11.4645 25.1567C11.7879 25.2278 12.1112 26.1285 12.1112 26.1285C12.1112 26.1285 12.6107 26.6385 13.2429 26.6954C13.8752 26.7523 13.8896 26.1285 13.8896 26.1285C13.8896 26.1285 13.8174 25.0069 13.4046 24.2658C12.9918 23.5247 13.0004 21.9982 13.0004 21.9982C13.0004 21.9982 13.4333 19.7969 13.2429 19.3257Z" fill="black" stroke="black"/>
<path d="M13.7629 13.9428C14.2125 14.2518 14.6162 15.1665 14.6162 15.1665C14.6162 15.1665 13.454 15.2515 12.9611 14.9625C12.4683 14.6736 12.1594 13.6199 12.1594 13.6199C12.1594 13.6199 13.2574 13.5954 13.7629 13.9428Z" fill="#3E9C5E"/>
<path d="M17.0806 13.9428C16.6486 14.2872 16.4007 15.1835 16.4007 15.1835C16.4007 15.1835 17.5123 15.3407 18.0323 14.9625C18.5126 14.6133 18.7461 13.6199 18.7461 13.6199C18.7461 13.6199 17.5986 13.5298 17.0806 13.9428Z" fill="#3E9C5E"/>
</svg>
